<svg viewBox="0 0 24 24" fill="none" xmlns="http://www.w3.org/2000/svg">
<path d="M5 2C3.348 2 2 3.348 2 5V19C2 20.652 3.348 22 5 22H19C20.652 22 22 20.652 22 19V5C22 3.348 20.652 2 19 2H5ZM5 4H19C19.55 4 20 4.45 20 5V19C20 19.55 19.55 20 19 20H18V18H13V20H5C4.45 20 4 19.55 4 19V5C4 4.45 4.45 4 5 4ZM12 6C11.4696 6 10.9609 6.21071 10.5858 6.58579C10.2107 6.96086 10 7.46957 10 8C10 8.53043 10.2107 9.03914 10.5858 9.41421C10.9609 9.78929 11.4696 10 12 10C12.5304 10 13.0391 9.78929 13.4142 9.41421C13.7893 9.03914 14 8.53043 14 8C14 7.46957 13.7893 6.96086 13.4142 6.58579C13.0391 6.21071 12.5304 6 12 6V6ZM7.5 8C7.10218 8 6.72064 8.15804 6.43934 8.43934C6.15804 8.72064 6 9.10218 6 9.5C6 9.89782 6.15804 10.2794 6.43934 10.5607C6.72064 10.842 7.10218 11 7.5 11C7.89782 11 8.27936 10.842 8.56066 10.5607C8.84196 10.2794 9 9.89782 9 9.5C9 9.10218 8.84196 8.72064 8.56066 8.43934C8.27936 8.15804 7.89782 8 7.5 8V8ZM16.5 8C16.1022 8 15.7206 8.15804 15.4393 8.43934C15.158 8.72064 15 9.10218 15 9.5C15 9.89782 15.158 10.2794 15.4393 10.5607C15.7206 10.842 16.1022 11 16.5 11C16.8978 11 17.2794 10.842 17.5607 10.5607C17.842 10.2794 18 9.89782 18 9.5C18 9.10218 17.842 8.72064 17.5607 8.43934C17.2794 8.15804 16.8978 8 16.5 8V8ZM12 11C9.34 11 8.5 13.5 8.5 13.5C8.5 12.652 9 12 9 12C8.7 11.812 7.93 11.687 7.562 11.687C6.348 11.687 5 12.879 5 13.687V16H19V13.687C19 12.879 17.488 11.687 16.437 11.687C16.07 11.687 15.301 11.813 15 12C15 12 15.5 12.652 15.5 13.5C15.5 13.5 14.66 11 12 11V11Z" fill="#737373"/>
</svg>
