<svg width="250" height="60" viewBox="0 0 250 60" fill="none" xmlns="http://www.w3.org/2000/svg">
<rect width="250" height="60" rx="4" fill="white"/>
<path d="M76.2051 32.6426C76.2051 32.1445 76.0293 31.7637 75.6777 31.5C75.3262 31.2305 74.6934 30.9492 73.7793 30.6562C72.8652 30.3574 72.1416 30.0645 71.6084 29.7773C70.1553 28.9922 69.4287 27.9346 69.4287 26.6045C69.4287 25.9131 69.6221 25.2979 70.0088 24.7588C70.4014 24.2139 70.9609 23.7891 71.6875 23.4844C72.4199 23.1797 73.2402 23.0273 74.1484 23.0273C75.0625 23.0273 75.877 23.1943 76.5918 23.5283C77.3066 23.8564 77.8604 24.3223 78.2529 24.9258C78.6514 25.5293 78.8506 26.2148 78.8506 26.9824H76.2139C76.2139 26.3965 76.0293 25.9424 75.6602 25.6201C75.291 25.292 74.7725 25.1279 74.1045 25.1279C73.46 25.1279 72.959 25.2656 72.6016 25.541C72.2441 25.8105 72.0654 26.168 72.0654 26.6133C72.0654 27.0293 72.2734 27.3779 72.6895 27.6592C73.1113 27.9404 73.7295 28.2041 74.5439 28.4502C76.0439 28.9014 77.1367 29.4609 77.8223 30.1289C78.5078 30.7969 78.8506 31.6289 78.8506 32.625C78.8506 33.7324 78.4316 34.6025 77.5938 35.2354C76.7559 35.8623 75.6279 36.1758 74.21 36.1758C73.2256 36.1758 72.3291 35.9971 71.5205 35.6396C70.7119 35.2764 70.0938 34.7812 69.666 34.1543C69.2441 33.5273 69.0332 32.8008 69.0332 31.9746H71.6787C71.6787 33.3867 72.5225 34.0928 74.21 34.0928C74.8369 34.0928 75.3262 33.9668 75.6777 33.7148C76.0293 33.457 76.2051 33.0996 76.2051 32.6426ZM83.1572 36H80.6084V26.4902H83.1572V36ZM80.459 24.0293C80.459 23.6484 80.585 23.335 80.8369 23.0889C81.0947 22.8428 81.4434 22.7197 81.8828 22.7197C82.3164 22.7197 82.6621 22.8428 82.9199 23.0889C83.1777 23.335 83.3066 23.6484 83.3066 24.0293C83.3066 24.416 83.1748 24.7324 82.9111 24.9785C82.6533 25.2246 82.3105 25.3477 81.8828 25.3477C81.4551 25.3477 81.1094 25.2246 80.8457 24.9785C80.5879 24.7324 80.459 24.416 80.459 24.0293ZM84.8887 31.1748C84.8887 29.7158 85.2344 28.541 85.9258 27.6504C86.623 26.7598 87.5605 26.3145 88.7383 26.3145C89.7812 26.3145 90.5928 26.6719 91.1729 27.3867L91.2783 26.4902H93.5811V35.6836C93.5811 36.5156 93.3906 37.2393 93.0098 37.8545C92.6348 38.4697 92.1045 38.9385 91.4189 39.2607C90.7334 39.583 89.9307 39.7441 89.0107 39.7441C88.3135 39.7441 87.6338 39.6035 86.9717 39.3223C86.3096 39.0469 85.8086 38.6895 85.4688 38.25L86.5938 36.7031C87.2266 37.4121 87.9941 37.7666 88.8965 37.7666C89.5703 37.7666 90.0947 37.585 90.4697 37.2217C90.8447 36.8643 91.0322 36.3545 91.0322 35.6924V35.1826C90.4463 35.8447 89.6758 36.1758 88.7207 36.1758C87.5781 36.1758 86.6523 35.7305 85.9434 34.8398C85.2402 33.9434 84.8887 32.7568 84.8887 31.2803V31.1748ZM87.4287 31.3594C87.4287 32.2207 87.6016 32.8975 87.9473 33.3896C88.293 33.876 88.7676 34.1191 89.3711 34.1191C90.1445 34.1191 90.6982 33.8291 91.0322 33.249V29.25C90.6924 28.6699 90.1445 28.3799 89.3887 28.3799C88.7793 28.3799 88.2988 28.6289 87.9473 29.127C87.6016 29.625 87.4287 30.3691 87.4287 31.3594ZM97.8789 26.4902L97.958 27.5889C98.6377 26.7393 99.5488 26.3145 100.691 26.3145C101.699 26.3145 102.449 26.6104 102.941 27.2021C103.434 27.7939 103.686 28.6787 103.697 29.8564V36H101.157V29.918C101.157 29.3789 101.04 28.9893 100.806 28.749C100.571 28.5029 100.182 28.3799 99.6367 28.3799C98.9219 28.3799 98.3857 28.6846 98.0283 29.2939V36H95.4883V26.4902H97.8789ZM112.794 36H110.245V26.4902H112.794V36ZM110.096 24.0293C110.096 23.6484 110.222 23.335 110.474 23.0889C110.731 22.8428 111.08 22.7197 111.52 22.7197C111.953 22.7197 112.299 22.8428 112.557 23.0889C112.814 23.335 112.943 23.6484 112.943 24.0293C112.943 24.416 112.812 24.7324 112.548 24.9785C112.29 25.2246 111.947 25.3477 111.52 25.3477C111.092 25.3477 110.746 25.2246 110.482 24.9785C110.225 24.7324 110.096 24.416 110.096 24.0293ZM117.232 26.4902L117.312 27.5889C117.991 26.7393 118.902 26.3145 120.045 26.3145C121.053 26.3145 121.803 26.6104 122.295 27.2021C122.787 27.7939 123.039 28.6787 123.051 29.8564V36H120.511V29.918C120.511 29.3789 120.394 28.9893 120.159 28.749C119.925 28.5029 119.535 28.3799 118.99 28.3799C118.275 28.3799 117.739 28.6846 117.382 29.2939V36H114.842V26.4902H117.232ZM137.737 32.5459L138.985 26.4902H141.438L139.012 36H136.885L135.083 30.0146L133.281 36H131.163L128.737 26.4902H131.189L132.429 32.5371L134.169 26.4902H136.006L137.737 32.5459ZM145.384 36H142.835V26.4902H145.384V36ZM142.686 24.0293C142.686 23.6484 142.812 23.335 143.063 23.0889C143.321 22.8428 143.67 22.7197 144.109 22.7197C144.543 22.7197 144.889 22.8428 145.146 23.0889C145.404 23.335 145.533 23.6484 145.533 24.0293C145.533 24.416 145.401 24.7324 145.138 24.9785C144.88 25.2246 144.537 25.3477 144.109 25.3477C143.682 25.3477 143.336 25.2246 143.072 24.9785C142.814 24.7324 142.686 24.416 142.686 24.0293ZM150.525 24.1523V26.4902H152.151V28.3535H150.525V33.0996C150.525 33.4512 150.593 33.7031 150.728 33.8555C150.862 34.0078 151.12 34.084 151.501 34.084C151.782 34.084 152.031 34.0635 152.248 34.0225V35.9473C151.75 36.0996 151.237 36.1758 150.71 36.1758C148.929 36.1758 148.021 35.2764 147.985 33.4775V28.3535H146.597V26.4902H147.985V24.1523H150.525ZM156.045 27.5273C156.719 26.7188 157.565 26.3145 158.585 26.3145C160.647 26.3145 161.693 27.5127 161.723 29.9092V36H159.183V29.9795C159.183 29.4346 159.065 29.0332 158.831 28.7754C158.597 28.5117 158.207 28.3799 157.662 28.3799C156.918 28.3799 156.379 28.667 156.045 29.2412V36H153.505V22.5H156.045V27.5273ZM178.413 34.3828C177.938 34.9512 177.268 35.3936 176.4 35.71C175.533 36.0205 174.572 36.1758 173.518 36.1758C172.41 36.1758 171.438 35.9355 170.6 35.4551C169.768 34.9688 169.123 34.2656 168.666 33.3457C168.215 32.4258 167.983 31.3447 167.972 30.1025V29.2324C167.972 27.9551 168.186 26.8506 168.613 25.9189C169.047 24.9814 169.668 24.2666 170.477 23.7744C171.291 23.2764 172.243 23.0273 173.333 23.0273C174.851 23.0273 176.037 23.3906 176.893 24.1172C177.748 24.8379 178.255 25.8896 178.413 27.2725H175.847C175.729 26.54 175.469 26.0039 175.064 25.6641C174.666 25.3242 174.115 25.1543 173.412 25.1543C172.516 25.1543 171.833 25.4912 171.364 26.165C170.896 26.8389 170.658 27.8408 170.652 29.1709V29.9883C170.652 31.3301 170.907 32.3438 171.417 33.0293C171.927 33.7148 172.674 34.0576 173.658 34.0576C174.648 34.0576 175.354 33.8467 175.776 33.4248V31.2188H173.377V29.2764H178.413V34.3828ZM179.995 31.1572C179.995 30.2139 180.177 29.373 180.54 28.6348C180.903 27.8965 181.425 27.3252 182.104 26.9209C182.79 26.5166 183.584 26.3145 184.486 26.3145C185.77 26.3145 186.815 26.707 187.624 27.4922C188.438 28.2773 188.893 29.3438 188.986 30.6914L189.004 31.3418C189.004 32.8008 188.597 33.9727 187.782 34.8574C186.968 35.7363 185.875 36.1758 184.504 36.1758C183.133 36.1758 182.037 35.7363 181.217 34.8574C180.402 33.9785 179.995 32.7832 179.995 31.2715V31.1572ZM182.535 31.3418C182.535 32.2441 182.705 32.9355 183.045 33.416C183.385 33.8906 183.871 34.1279 184.504 34.1279C185.119 34.1279 185.6 33.8936 185.945 33.4248C186.291 32.9502 186.464 32.1943 186.464 31.1572C186.464 30.2725 186.291 29.5869 185.945 29.1006C185.6 28.6143 185.113 28.3711 184.486 28.3711C183.865 28.3711 183.385 28.6143 183.045 29.1006C182.705 29.5811 182.535 30.3281 182.535 31.3418ZM190.173 31.1572C190.173 30.2139 190.354 29.373 190.718 28.6348C191.081 27.8965 191.603 27.3252 192.282 26.9209C192.968 26.5166 193.762 26.3145 194.664 26.3145C195.947 26.3145 196.993 26.707 197.802 27.4922C198.616 28.2773 199.07 29.3438 199.164 30.6914L199.182 31.3418C199.182 32.8008 198.774 33.9727 197.96 34.8574C197.146 35.7363 196.053 36.1758 194.682 36.1758C193.311 36.1758 192.215 35.7363 191.395 34.8574C190.58 33.9785 190.173 32.7832 190.173 31.2715V31.1572ZM192.713 31.3418C192.713 32.2441 192.883 32.9355 193.223 33.416C193.562 33.8906 194.049 34.1279 194.682 34.1279C195.297 34.1279 195.777 33.8936 196.123 33.4248C196.469 32.9502 196.642 32.1943 196.642 31.1572C196.642 30.2725 196.469 29.5869 196.123 29.1006C195.777 28.6143 195.291 28.3711 194.664 28.3711C194.043 28.3711 193.562 28.6143 193.223 29.1006C192.883 29.5811 192.713 30.3281 192.713 31.3418ZM200.377 31.1748C200.377 29.7158 200.723 28.541 201.414 27.6504C202.111 26.7598 203.049 26.3145 204.227 26.3145C205.27 26.3145 206.081 26.6719 206.661 27.3867L206.767 26.4902H209.069V35.6836C209.069 36.5156 208.879 37.2393 208.498 37.8545C208.123 38.4697 207.593 38.9385 206.907 39.2607C206.222 39.583 205.419 39.7441 204.499 39.7441C203.802 39.7441 203.122 39.6035 202.46 39.3223C201.798 39.0469 201.297 38.6895 200.957 38.25L202.082 36.7031C202.715 37.4121 203.482 37.7666 204.385 37.7666C205.059 37.7666 205.583 37.585 205.958 37.2217C206.333 36.8643 206.521 36.3545 206.521 35.6924V35.1826C205.935 35.8447 205.164 36.1758 204.209 36.1758C203.066 36.1758 202.141 35.7305 201.432 34.8398C200.729 33.9434 200.377 32.7568 200.377 31.2803V31.1748ZM202.917 31.3594C202.917 32.2207 203.09 32.8975 203.436 33.3896C203.781 33.876 204.256 34.1191 204.859 34.1191C205.633 34.1191 206.187 33.8291 206.521 33.249V29.25C206.181 28.6699 205.633 28.3799 204.877 28.3799C204.268 28.3799 203.787 28.6289 203.436 29.127C203.09 29.625 202.917 30.3691 202.917 31.3594ZM213.71 36H211.161V22.5H213.71V36ZM220.188 36.1758C218.793 36.1758 217.656 35.748 216.777 34.8926C215.904 34.0371 215.468 32.8975 215.468 31.4736V31.2275C215.468 30.2725 215.652 29.4199 216.021 28.6699C216.391 27.9141 216.912 27.334 217.586 26.9297C218.266 26.5195 219.039 26.3145 219.906 26.3145C221.207 26.3145 222.229 26.7246 222.974 27.5449C223.724 28.3652 224.099 29.5283 224.099 31.0342V32.0713H218.043C218.125 32.6924 218.371 33.1904 218.781 33.5654C219.197 33.9404 219.722 34.1279 220.354 34.1279C221.333 34.1279 222.098 33.7734 222.648 33.0645L223.896 34.4619C223.516 35.001 223 35.4229 222.35 35.7275C221.699 36.0264 220.979 36.1758 220.188 36.1758ZM219.897 28.3711C219.394 28.3711 218.983 28.541 218.667 28.8809C218.356 29.2207 218.157 29.707 218.069 30.3398H221.603V30.1377C221.591 29.5752 221.438 29.1416 221.146 28.8369C220.853 28.5264 220.437 28.3711 219.897 28.3711Z" fill="#757575"/>
<path fill-rule="evenodd" clip-rule="evenodd" d="M41.52 31.2727C41.52 30.4218 41.4436 29.6036 41.3018 28.8182H30V33.46H36.4582C36.18 34.96 35.3345 36.2309 34.0636 37.0818V40.0927H37.9418C40.2109 38.0036 41.52 34.9273 41.52 31.2727Z" fill="#4285F4"/>
<path fill-rule="evenodd" clip-rule="evenodd" d="M29.9998 43C33.2398 43 35.9561 41.9255 37.9416 40.0927L34.0634 37.0818C32.9889 37.8018 31.6143 38.2273 29.9998 38.2273C26.8743 38.2273 24.2289 36.1164 23.2852 33.28H19.2761V36.3891C21.2507 40.3109 25.3089 43 29.9998 43Z" fill="#34A853"/>
<path fill-rule="evenodd" clip-rule="evenodd" d="M23.2855 33.28C23.0455 32.56 22.9091 31.7909 22.9091 31C22.9091 30.2091 23.0455 29.44 23.2855 28.72V25.6109H19.2764C18.4636 27.2309 18 29.0636 18 31C18 32.9364 18.4636 34.7691 19.2764 36.3891L23.2855 33.28Z" fill="#FBBC05"/>
<path fill-rule="evenodd" clip-rule="evenodd" d="M29.9998 23.7727C31.7616 23.7727 33.3434 24.3782 34.587 25.5673L38.0289 22.1255C35.9507 20.1891 33.2343 19 29.9998 19C25.3089 19 21.2507 21.6891 19.2761 25.6109L23.2852 28.72C24.2289 25.8836 26.8743 23.7727 29.9998 23.7727Z" fill="#EA4335"/>
</svg>
