<svg width="422" height="352" viewBox="0 0 422 352" fill="none" xmlns="http://www.w3.org/2000/svg">
<path d="M421.015 0.834825C414.527 0.377658 408.197 0.166656 401.973 0.166656C267.091 0.166656 190.304 102.994 162.365 185.741L236.496 259.855C321.634 229.365 422 155.428 422 21.9876C422 15.0949 421.578 8.04399 421.015 0.834825ZM244.162 223.176L198.955 177.969C218.104 133.132 272.542 37.6895 390.262 31.8167C386.323 122.353 326.892 187.535 244.162 223.176ZM329.969 247.283C321.388 253.138 312.86 258.413 304.438 263.125C301.501 277.087 294.046 292.015 283.25 304.728C283.232 295.69 280.7 286.582 276.287 277.473C268.533 280.99 261.165 284.032 254.114 286.687C264.471 313.484 253.921 333.265 239.766 351.833C260.093 350.304 281.421 340.351 298.213 323.542C316.359 305.413 329.072 279.267 329.969 247.283ZM144.605 145.827C135.515 141.449 126.459 138.969 117.439 138.934C130.029 128.261 144.799 120.841 158.637 117.834C163.56 109.166 169.099 100.62 174.919 92.2154C142.935 93.077 116.771 105.825 98.6073 123.953C81.8152 140.745 71.8807 162.092 70.3333 182.4C88.9013 168.228 108.718 157.678 135.497 168.07C138.223 160.685 141.229 153.265 144.605 145.827ZM265.948 156.219C259.794 150.1 259.794 140.165 265.948 134.046C272.067 127.927 281.984 127.927 288.121 134.046C294.257 140.183 294.257 150.117 288.121 156.236C281.984 162.373 272.067 162.373 265.948 156.219ZM343.561 78.6059C331.323 66.3679 311.454 66.3679 299.216 78.6059C286.96 90.8439 286.96 110.731 299.216 122.969C311.454 135.224 331.323 135.224 343.578 122.969C355.799 110.731 355.799 90.8439 343.561 78.6059ZM313.616 108.55C309.344 104.26 309.344 97.297 313.616 93.0242C317.872 88.7339 324.87 88.7339 329.178 93.0242C333.433 97.297 333.415 104.26 329.178 108.55C324.87 112.823 317.889 112.823 313.616 108.55ZM199.465 267.222C168.976 299.646 135.181 316.227 98.8887 316.227C42.622 316.227 0 274.836 0 222.842C0 196.731 10.7434 167.947 35.9228 140.394C-20.3615 230.719 55.7216 318.478 153.626 221.4L167.077 234.851C151.076 253.507 137.871 269.614 114.837 281.236C138.469 282.239 165.301 268.137 185.469 253.226L199.465 267.222Z" fill="#27A7CF"/>
</svg>
